# Blender v2.77 (sub 0) OBJ File: 'untitled.blend'
# www.blender.org
o Cube
v 138.027405 -1.999998 -200.000015
v 200.000000 -1.999998 -138.027390
v 200.000000 -1.999998 138.027374
v 138.027405 -1.999998 200.000000
v -138.027390 -1.999998 199.999969
v -200.000000 -1.999998 138.027359
v -199.999939 -1.999998 -138.027466
v -138.027313 -1.999998 -200.000061
v 200.000031 1.999998 -138.027283
v 138.027481 1.999998 -199.999924
v 138.027283 1.999998 200.000076
v 199.999924 1.999998 138.027512
v -200.000061 1.999998 138.027313
v -138.027466 1.999998 199.999969
v -138.027359 1.999998 -199.999985
v -200.000000 1.999998 -138.027390
vt 3.1985 4.4101
vt -2.1985 4.4101
vt 3.1985 4.4101
vt 3.1985 -3.4101
vt -2.1985 -3.4101
vt 3.1985 -3.4101
vt -3.4101 -2.1985
vt -3.4101 3.1985
vt -3.4101 -2.1985
vt -3.4101 3.1985
vt -2.1985 -3.4101
vt 4.4101 3.1985
vt 4.4101 -2.1985
vt 4.4101 3.1985
vt 4.4101 -2.1985
vt -2.1985 4.4101
vn 0.0000 0.0000 -1.0000
vn 0.0000 -0.0000 1.0000
vn -1.0000 -0.0000 -0.0000
vn 0.0000 1.0000 0.0000
vn 1.0000 -0.0000 0.0000
vn 0.7071 0.0000 -0.7071
vn 0.7071 -0.0000 0.7071
vn -0.7071 -0.0000 0.7071
vn -0.7071 0.0000 -0.7071
vn 0.0000 -1.0000 0.0000
usemtl models/mbrk2_1
s off
f 1/1/1 15/2/1 10/3/1
f 11/4/2 5/5/2 4/6/2
f 13/7/3 7/8/3 6/9/3
f 16/10/4 14/11/4 15/2/4
f 9/12/5 3/13/5 2/14/5
f 10/3/6 2/14/6 1/1/6
f 12/15/7 4/6/7 3/13/7
f 14/11/8 6/9/8 5/5/8
f 7/8/9 15/2/9 8/16/9
f 5/5/10 6/9/10 3/13/10
f 1/1/1 8/16/1 15/2/1
f 11/4/2 14/11/2 5/5/2
f 13/7/3 16/10/3 7/8/3
f 12/15/4 9/12/4 15/2/4
f 10/3/4 15/2/4 9/12/4
f 16/10/4 13/7/4 14/11/4
f 14/11/4 11/4/4 12/15/4
f 12/15/4 15/2/4 14/11/4
f 9/12/5 12/15/5 3/13/5
f 10/3/6 9/12/6 2/14/6
f 12/15/7 11/4/7 4/6/7
f 14/11/8 13/7/8 6/9/8
f 7/8/9 16/10/9 15/2/9
f 8/16/10 1/1/10 2/14/10
f 2/14/10 3/13/10 8/16/10
f 4/6/10 5/5/10 3/13/10
f 6/9/10 7/8/10 8/16/10
f 8/16/10 3/13/10 6/9/10
