# Blender v2.77 (sub 0) OBJ File: 'untitled.blend'
# www.blender.org
o Cube
v 414.082214 -5.999994 -600.000061
v 600.000000 -5.999994 -414.082184
v 600.000000 -5.999994 414.082153
v 414.082214 -5.999994 600.000000
v -414.082184 -5.999994 599.999878
v -600.000000 -5.999994 414.082062
v -599.999817 -5.999994 -414.082367
v -414.081909 -5.999994 -600.000183
v 600.000122 5.999994 -414.081848
v 414.082428 5.999994 -599.999756
v 414.081818 5.999994 600.000244
v 599.999756 5.999994 414.082520
v -600.000183 5.999994 414.081940
v -414.082367 5.999994 599.999878
v -414.082062 5.999994 -599.999939
v -600.000000 5.999994 -414.082184
vt 3.1985 4.4101
vt -2.1985 4.4101
vt 3.1985 4.4101
vt 3.1985 -3.4101
vt -2.1985 -3.4101
vt 3.1985 -3.4101
vt -3.4101 -2.1985
vt -3.4101 3.1985
vt -3.4101 3.1985
vt -2.1985 -3.4101
vt 4.4101 -2.1985
vt 4.4101 3.1985
vt 4.4101 -2.1985
vt 4.4101 3.1985
vt -2.1985 4.4101
vt -3.4101 -2.1985
vn 0.0000 0.0000 -1.0000
vn -0.0000 -0.0000 1.0000
vn -1.0000 -0.0000 -0.0000
vn 0.0000 1.0000 -0.0000
vn 1.0000 -0.0000 0.0000
vn 0.7071 0.0000 -0.7071
vn 0.7071 -0.0000 0.7071
vn -0.7071 -0.0000 0.7071
vn -0.7071 0.0000 -0.7071
vn 0.0000 -1.0000 0.0000
usemtl models/mbrk2_1
s off
f 1/1/1 15/2/1 10/3/1
f 11/4/2 5/5/2 4/6/2
f 6/7/3 16/8/3 7/9/3
f 16/8/4 14/10/4 12/11/4
f 9/12/5 3/13/5 2/14/5
f 10/3/6 2/14/6 1/1/6
f 12/11/7 4/6/7 3/13/7
f 14/10/8 6/7/8 5/5/8
f 7/9/9 15/2/9 8/15/9
f 4/6/10 6/7/10 8/15/10
f 1/1/1 8/15/1 15/2/1
f 11/4/2 14/10/2 5/5/2
f 6/7/3 13/16/3 16/8/3
f 12/11/4 9/12/4 15/2/4
f 10/3/4 15/2/4 9/12/4
f 16/8/4 13/16/4 14/10/4
f 14/10/4 11/4/4 12/11/4
f 12/11/4 15/2/4 16/8/4
f 9/12/5 12/11/5 3/13/5
f 10/3/6 9/12/6 2/14/6
f 12/11/7 11/4/7 4/6/7
f 14/10/8 13/16/8 6/7/8
f 7/9/9 16/8/9 15/2/9
f 8/15/10 1/1/10 2/14/10
f 2/14/10 3/13/10 4/6/10
f 4/6/10 5/5/10 6/7/10
f 6/7/10 7/9/10 8/15/10
f 8/15/10 2/14/10 4/6/10
